<?xml version="1.0" encoding="UTF-8" standalone="no"?>
<svg width="251px" height="29px" viewBox="0 0 251 29" version="1.1" xmlns="http://www.w3.org/2000/svg" xmlns:xlink="http://www.w3.org/1999/xlink" xmlns:sketch="http://www.bohemiancoding.com/sketch/ns">
    <!-- Generator: Sketch 3.3.3 (12072) - http://www.bohemiancoding.com/sketch -->
    <title>jessicadowney-title@1x</title>
    <desc>Created with Sketch.</desc>
    <defs>
        <linearGradient x1="6.123234e-15%" y1="50%" x2="100%" y2="50%" id="linearGradient-1">
            <stop stop-color="#FF9581" offset="0%"></stop>
            <stop stop-color="#F8C33C" offset="100%"></stop>
            <stop stop-color="#F5D028" offset="100%"></stop>
            <stop stop-color="#98F7FF" offset="100%"></stop>
        </linearGradient>
    </defs>
    <g id="Page-1" stroke="none" stroke-width="1" fill="none" fill-rule="evenodd" sketch:type="MSPage">
        <g id="about" sketch:type="MSArtboardGroup" transform="translate(-599.000000, -76.000000)" fill="url(#linearGradient-1)">
            <g id="downey" sketch:type="MSLayerGroup" transform="translate(598.500000, 76.000000)">
                <path d="M137.57,22.03 L137.57,0.73 L145.31,0.73 C147.050009,0.73 148.574993,1.0099972 149.885,1.57 C151.195007,2.1300028 152.289996,2.8899952 153.17,3.85 C154.050004,4.8100048 154.709998,5.93499355 155.15,7.225 C155.590002,8.51500645 155.81,9.8899927 155.81,11.35 C155.81,12.9700081 155.565002,14.4349935 155.075,15.745 C154.584998,17.0550066 153.880005,18.1749954 152.96,19.105 C152.039995,20.0350047 150.935006,20.7549975 149.645,21.265 C148.354994,21.7750026 146.910008,22.03 145.31,22.03 L137.57,22.03 Z M165.98,22.33 C164.699994,22.33 163.550005,22.1100022 162.53,21.67 C161.509995,21.2299978 160.645004,20.6350037 159.935,19.885 C159.224996,19.1349962 158.680002,18.2700049 158.3,17.29 C157.919998,16.3099951 157.73,15.2800054 157.73,14.2 C157.73,13.0999945 157.919998,12.0600049 158.3,11.08 C158.680002,10.0999951 159.224996,9.23500375 159.935,8.485 C160.645004,7.73499625 161.509995,7.1400022 162.53,6.7 C163.550005,6.2599978 164.699994,6.04 165.98,6.04 C167.260006,6.04 168.404995,6.2599978 169.415,6.7 C170.425005,7.1400022 171.284996,7.73499625 171.995,8.485 C172.705004,9.23500375 173.249998,10.0999951 173.63,11.08 C174.010002,12.0600049 174.2,13.0999945 174.2,14.2 C174.2,15.2800054 174.010002,16.3099951 173.63,17.29 C173.249998,18.2700049 172.710003,19.1349962 172.01,19.885 C171.309997,20.6350037 170.450005,21.2299978 169.43,21.67 C168.409995,22.1100022 167.260006,22.33 165.98,22.33 Z M195.83,6.31 L199.67,6.31 L193.1,22.03 L189.8,22.03 L187.1,15.13 L184.43,22.03 L181.13,22.03 L174.56,6.31 L178.37,6.31 L183.05,18.25 L184.97,13.15 L182.21,6.34 L185.45,6.34 L187.1,11.17 L188.78,6.34 L192.02,6.34 L189.29,13.15 L191.18,18.25 L195.83,6.31 Z M216.2,22.03 L212.18,22.03 L212.18,13.21 C212.18,11.9499937 211.960002,11.0300029 211.52,10.45 C211.079998,9.8699971 210.470004,9.58 209.69,9.58 C209.289998,9.58 208.880002,9.6599992 208.46,9.82 C208.039998,9.9800008 207.645002,10.2049985 207.275,10.495 C206.904998,10.7850014 206.570002,11.129998 206.27,11.53 C205.969999,11.930002 205.750001,12.3699976 205.61,12.85 L205.61,22.03 L201.59,22.03 L201.59,6.31 L205.22,6.31 L205.22,9.22 C205.800003,8.219995 206.639995,7.4400028 207.74,6.88 C208.840006,6.3199972 210.079993,6.04 211.46,6.04 C212.440005,6.04 213.239997,6.2199982 213.86,6.58 C214.480003,6.9400018 214.959998,7.4099971 215.3,7.99 C215.640002,8.5700029 215.874999,9.2299963 216.005,9.97 C216.135001,10.7100037 216.2,11.4599962 216.2,12.22 L216.2,22.03 Z M226.97,22.33 C225.709994,22.33 224.570005,22.1150021 223.55,21.685 C222.529995,21.2549978 221.660004,20.6700037 220.94,19.93 C220.219996,19.1899963 219.665002,18.3300049 219.275,17.35 C218.884998,16.3699951 218.69,15.3400054 218.69,14.26 C218.69,13.1399944 218.879998,12.0850049 219.26,11.095 C219.640002,10.104995 220.189996,9.23500375 220.91,8.485 C221.630004,7.73499625 222.504995,7.1400022 223.535,6.7 C224.565005,6.2599978 225.719994,6.04 227,6.04 C228.280006,6.04 229.424995,6.2599978 230.435,6.7 C231.445005,7.1400022 232.304996,7.7299963 233.015,8.47 C233.725004,9.2100037 234.264998,10.0699951 234.635,11.05 C235.005002,12.0300049 235.19,13.0499947 235.19,14.11 C235.19,14.3700013 235.185,14.6199988 235.175,14.86 C235.165,15.1000012 235.14,15.2999992 235.1,15.46 L222.95,15.46 C223.01,16.0800031 223.159999,16.6299976 223.4,17.11 C223.640001,17.5900024 223.949998,17.9999983 224.33,18.34 C224.710002,18.6800017 225.139998,18.9399991 225.62,19.12 C226.100002,19.3000009 226.599997,19.39 227.12,19.39 C227.920004,19.39 228.674996,19.1950019 229.385,18.805 C230.095004,18.414998 230.579999,17.9000032 230.84,17.26 L234.29,18.22 C233.709997,19.420006 232.785006,20.4049961 231.515,21.175 C230.244994,21.9450038 228.730009,22.33 226.97,22.33 Z M237.38,25.09 C237.740002,25.1900005 238.069998,25.2599998 238.37,25.3 C238.670001,25.3400002 238.929999,25.36 239.15,25.36 C239.410001,25.36 239.639999,25.3150004 239.84,25.225 C240.040001,25.1349995 240.234999,24.9700012 240.425,24.73 C240.615001,24.4899988 240.804999,24.1550021 240.995,23.725 C241.185001,23.2949978 241.389999,22.7300035 241.61,22.03 L235.37,6.31 L239.51,6.31 L243.8,18.55 L247.58,6.31 L251.36,6.31 L244.73,25.15 C244.309998,26.350006 243.640005,27.2749967 242.72,27.925 C241.799995,28.5750032 240.730006,28.9 239.51,28.9 C238.809996,28.9 238.100004,28.7900011 237.38,28.57 L237.38,25.09 Z M2.26,17.65 C2.5400014,17.850001 3.0099967,18.0699988 3.67,18.31 C4.3300033,18.5500012 5.0899957,18.67 5.95,18.67 C6.7900042,18.67 7.4599975,18.5250015 7.96,18.235 C8.4600025,17.9449986 8.8399987,17.500003 9.1,16.9 C9.3600013,16.299997 9.5299996,15.5550045 9.61,14.665 C9.6900004,13.7749956 9.73,12.730006 9.73,11.53 L9.73,0.73 L13.87,0.73 L13.87,11.53 C13.87,13.1500081 13.7850008,14.6249934 13.615,15.955 C13.4449991,17.2850067 13.0850027,18.4199953 12.535,19.36 C11.9849972,20.3000047 11.1900052,21.0299974 10.15,21.55 C9.1099948,22.0700026 7.7100088,22.33 5.95,22.33 C4.149991,22.33 2.6100064,21.8900044 1.33,21.01 L2.26,17.65 Z M24.97,22.3 C23.7099937,22.3 22.5700051,22.0850022 21.55,21.655 C20.5299949,21.2249978 19.6600036,20.6400037 18.94,19.9 C18.2199964,19.1599963 17.665002,18.3000049 17.275,17.32 C16.8849981,16.3399951 16.69,15.3100054 16.69,14.23 C16.69,13.1099944 16.8799981,12.0550049 17.26,11.065 C17.6400019,10.074995 18.1899964,9.20500375 18.91,8.455 C19.6300036,7.70499625 20.5049949,7.1100022 21.535,6.67 C22.5650052,6.2299978 23.7199936,6.01 25,6.01 C26.2800064,6.01 27.424995,6.2299978 28.435,6.67 C29.445005,7.1100022 30.3049964,7.6999963 31.015,8.44 C31.7250035,9.1800037 32.2649981,10.0399951 32.635,11.02 C33.0050018,12.0000049 33.19,13.0199947 33.19,14.08 C33.19,14.3400013 33.185,14.5899988 33.175,14.83 C33.165,15.0700012 33.1400002,15.2699992 33.1,15.43 L20.95,15.43 C21.0100003,16.0500031 21.1599988,16.5999976 21.4,17.08 C21.6400012,17.5600024 21.9499981,17.9699983 22.33,18.31 C22.7100019,18.6500017 23.1399976,18.9099991 23.62,19.09 C24.1000024,19.2700009 24.5999974,19.36 25.12,19.36 C25.920004,19.36 26.6749964,19.165002 27.385,18.775 C28.0950036,18.3849981 28.5799987,17.8700032 28.84,17.23 L32.29,18.19 C31.7099971,19.390006 30.7850064,20.3749962 29.515,21.145 C28.2449936,21.9150039 26.7300088,22.3 24.97,22.3 Z M41.86,22.3 C41.2199968,22.3 40.5550034,22.2500005 39.865,22.15 C39.1749965,22.0499995 38.5000033,21.9100009 37.84,21.73 C37.1799967,21.5499991 36.550003,21.3300013 35.95,21.07 C35.349997,20.8099987 34.8200023,20.5200016 34.36,20.2 L35.98,17.47 C37.98001,18.7700065 39.9099907,19.42 41.77,19.42 C42.6100042,19.42 43.2699976,19.2700015 43.75,18.97 C44.2300024,18.6699985 44.47,18.2400028 44.47,17.68 C44.47,17.1199972 44.1850028,16.7050014 43.615,16.435 C43.0449971,16.1649987 42.0900067,15.8700016 40.75,15.55 C39.7299949,15.3099988 38.8600036,15.0600013 38.14,14.8 C37.4199964,14.5399987 36.8400022,14.2400017 36.4,13.9 C35.9599978,13.5599983 35.640001,13.1700022 35.44,12.73 C35.239999,12.2899978 35.14,11.770003 35.14,11.17 C35.14,10.369996 35.2999984,9.6500032 35.62,9.01 C35.9400016,8.3699968 36.3849971,7.82500225 36.955,7.375 C37.5250028,6.92499775 38.1949961,6.5800012 38.965,6.34 C39.7350038,6.0999988 40.5699955,5.98 41.47,5.98 C42.5900056,5.98 43.7049944,6.15499825 44.815,6.505 C45.9250055,6.85500175 46.9599952,7.329997 47.92,7.93 L46.27,10.42 C45.3899956,9.8599972 44.5600039,9.45500125 43.78,9.205 C42.9999961,8.95499875 42.2200039,8.83 41.44,8.83 C40.7199964,8.83 40.1150024,8.9699986 39.625,9.25 C39.1349975,9.5300014 38.89,9.9799969 38.89,10.6 C38.89,11.1400027 39.1249976,11.5299988 39.595,11.77 C40.0650023,12.0100012 40.899994,12.2799985 42.1,12.58 C43.2200056,12.8600014 44.174996,13.1399986 44.965,13.42 C45.7550039,13.7000014 46.4049974,14.0199982 46.915,14.38 C47.4250025,14.7400018 47.7949988,15.1549977 48.025,15.625 C48.2550011,16.0950024 48.37,16.6599967 48.37,17.32 C48.37,18.0800038 48.2150015,18.7699969 47.905,19.39 C47.5949984,20.0100031 47.1600028,20.5349979 46.6,20.965 C46.0399972,21.3950022 45.355004,21.7249989 44.545,21.955 C43.7349959,22.1850012 42.8400049,22.3 41.86,22.3 Z M57.1,22.3 C56.4599968,22.3 55.7950034,22.2500005 55.105,22.15 C54.4149965,22.0499995 53.7400033,21.9100009 53.08,21.73 C52.4199967,21.5499991 51.790003,21.3300013 51.19,21.07 C50.589997,20.8099987 50.0600023,20.5200016 49.6,20.2 L51.22,17.47 C53.22001,18.7700065 55.1499907,19.42 57.01,19.42 C57.8500042,19.42 58.5099976,19.2700015 58.99,18.97 C59.4700024,18.6699985 59.71,18.2400028 59.71,17.68 C59.71,17.1199972 59.4250028,16.7050014 58.855,16.435 C58.2849971,16.1649987 57.3300067,15.8700016 55.99,15.55 C54.9699949,15.3099988 54.1000036,15.0600013 53.38,14.8 C52.6599964,14.5399987 52.0800022,14.2400017 51.64,13.9 C51.1999978,13.5599983 50.880001,13.1700022 50.68,12.73 C50.479999,12.2899978 50.38,11.770003 50.38,11.17 C50.38,10.369996 50.5399984,9.6500032 50.86,9.01 C51.1800016,8.3699968 51.6249971,7.82500225 52.195,7.375 C52.7650028,6.92499775 53.4349961,6.5800012 54.205,6.34 C54.9750038,6.0999988 55.8099955,5.98 56.71,5.98 C57.8300056,5.98 58.9449944,6.15499825 60.055,6.505 C61.1650055,6.85500175 62.1999952,7.329997 63.16,7.93 L61.51,10.42 C60.6299956,9.8599972 59.8000039,9.45500125 59.02,9.205 C58.2399961,8.95499875 57.4600039,8.83 56.68,8.83 C55.9599964,8.83 55.3550024,8.9699986 54.865,9.25 C54.3749975,9.5300014 54.13,9.9799969 54.13,10.6 C54.13,11.1400027 54.3649976,11.5299988 54.835,11.77 C55.3050023,12.0100012 56.139994,12.2799985 57.34,12.58 C58.4600056,12.8600014 59.414996,13.1399986 60.205,13.42 C60.9950039,13.7000014 61.6449974,14.0199982 62.155,14.38 C62.6650025,14.7400018 63.0349988,15.1549977 63.265,15.625 C63.4950011,16.0950024 63.61,16.6599967 63.61,17.32 C63.61,18.0800038 63.4550015,18.7699969 63.145,19.39 C62.8349984,20.0100031 62.4000028,20.5349979 61.84,20.965 C61.2799972,21.3950022 60.595004,21.7249989 59.785,21.955 C58.9749959,22.1850012 58.0800049,22.3 57.1,22.3 Z M66.13,22 L66.13,6.28 L70.15,6.28 L70.15,22 L66.13,22 Z M66.13,4.09 L66.13,0.1 L70.15,0.1 L70.15,4.09 L66.13,4.09 Z M72.76,14.14 C72.76,13.0399945 72.9499981,12.0000049 73.33,11.02 C73.7100019,10.0399951 74.2599964,9.1800037 74.98,8.44 C75.7000036,7.6999963 76.5699949,7.1100022 77.59,6.67 C78.6100051,6.2299978 79.7599936,6.01 81.04,6.01 C82.7600086,6.01 84.2249939,6.3799963 85.435,7.12 C86.645006,7.8600037 87.549997,8.829994 88.15,10.03 L84.22,11.23 C83.8799983,10.6499971 83.4300028,10.2050015 82.87,9.895 C82.3099972,9.58499845 81.6900034,9.43 81.01,9.43 C80.4299971,9.43 79.8900025,9.54499885 79.39,9.775 C78.8899975,10.0050011 78.4550018,10.3249979 78.085,10.735 C77.7149981,11.1450021 77.425001,11.6399971 77.215,12.22 C77.0049989,12.8000029 76.9,13.4399965 76.9,14.14 C76.9,14.8400035 77.0099989,15.4799971 77.23,16.06 C77.4500011,16.6400029 77.7449981,17.1399979 78.115,17.56 C78.4850018,17.9800021 78.9199975,18.3049989 79.42,18.535 C79.9200025,18.7650012 80.4499972,18.88 81.01,18.88 C81.7300036,18.88 82.3949969,18.7000018 83.005,18.34 C83.615003,17.9799982 84.0399988,17.5400026 84.28,17.02 L88.21,18.22 C87.6699973,19.420006 86.7800062,20.3999962 85.54,21.16 C84.2999938,21.9200038 82.8100087,22.3 81.07,22.3 C79.7899936,22.3 78.6400051,22.0800022 77.62,21.64 C76.5999949,21.1999978 75.7300036,20.6050038 75.01,19.855 C74.2899964,19.1049962 73.7350019,18.235005 73.345,17.245 C72.954998,16.254995 72.76,15.2200054 72.76,14.14 Z M94.96,22.3 C94.1999962,22.3 93.4900033,22.1750013 92.83,21.925 C92.1699967,21.6749988 91.6000024,21.3250022 91.12,20.875 C90.6399976,20.4249978 90.2650014,19.900003 89.995,19.3 C89.7249987,18.699997 89.59,18.0400036 89.59,17.32 C89.59,16.5799963 89.7549984,15.8950032 90.085,15.265 C90.4150017,14.6349968 90.8749971,14.1000022 91.465,13.66 C92.055003,13.2199978 92.7599959,12.8750012 93.58,12.625 C94.4000041,12.3749988 95.2999951,12.25 96.28,12.25 C96.9800035,12.25 97.6649967,12.3099994 98.335,12.43 C99.0050034,12.5500006 99.5999974,12.7199989 100.12,12.94 L100.12,12.04 C100.12,10.9999948 99.825003,10.2000028 99.235,9.64 C98.6449971,9.0799972 97.7700058,8.8 96.61,8.8 C95.7699958,8.8 94.950004,8.9499985 94.15,9.25 C93.349996,9.5500015 92.5300042,9.9899971 91.69,10.57 L90.46,8.02 C92.4800101,6.6799933 94.6599883,6.01 97,6.01 C99.2600113,6.01 101.014994,6.56499445 102.265,7.675 C103.515006,8.78500555 104.14,10.3899895 104.14,12.49 L104.14,17.38 C104.14,17.8000021 104.219999,18.0999991 104.38,18.28 C104.540001,18.4600009 104.819998,18.5599999 105.22,18.58 L105.22,22 C104.839998,22.0800004 104.485002,22.1349998 104.155,22.165 C103.824998,22.1950001 103.540001,22.21 103.3,22.21 C102.539996,22.1899999 101.960002,22.0150017 101.56,21.685 C101.159998,21.3549984 100.910001,20.9100028 100.81,20.35 L100.72,19.48 C100.019997,20.4000046 99.170005,21.0999976 98.17,21.58 C97.169995,22.0600024 96.1000057,22.3 94.96,22.3 Z" id="Path" sketch:type="MSShapeGroup"></path>
            </g>
        </g>
    </g>
</svg>